<?xml version="1.0" standalone="no"?>
<!DOCTYPE svg PUBLIC "-//W3C//DTD SVG 20010904//EN"
 "http://www.w3.org/TR/2001/REC-SVG-20010904/DTD/svg10.dtd">
<svg version="1.0" xmlns="http://www.w3.org/2000/svg"
 width="500.000000pt" height="500.000000pt" viewBox="0 0 500.000000 500.000000"
 preserveAspectRatio="xMidYMid meet">

<g transform="translate(0.000000,500.000000) scale(0.100000,-0.100000)"
fill="#000000" stroke="none">
<path d="M2240 4819 c-134 -12 -345 -52 -485 -93 -365 -105 -660 -275 -929
-536 -188 -182 -319 -364 -437 -605 -163 -335 -240 -688 -241 -1100 0 -454 73
-794 247 -1150 308 -631 854 -1041 1590 -1190 348 -71 843 -55 1185 36 438
117 756 301 1057 610 395 406 623 1010 623 1650 0 923 -392 1658 -1107 2075
-411 240 -961 351 -1503 303z m501 -399 c893 -90 1532 -685 1678 -1562 119
-713 -74 -1390 -521 -1824 -152 -147 -245 -216 -420 -308 -286 -152 -605 -226
-975 -226 -208 0 -362 17 -540 60 -531 128 -953 458 -1191 930 -151 299 -222
621 -222 1001 0 866 473 1563 1241 1827 125 43 325 88 454 101 118 12 378 13
496 1z"/>
<path d="M2370 4329 c-251 -17 -466 -75 -695 -189 -212 -105 -318 -183 -496
-360 -114 -114 -163 -172 -229 -270 -337 -504 -409 -1123 -198 -1700 143 -393
451 -755 814 -960 199 -112 416 -190 629 -227 139 -24 472 -24 605 0 230 42
469 127 639 228 124 73 280 190 351 263 l54 56 -49 50 c-27 27 -54 50 -59 50
-6 0 -38 -27 -71 -59 -251 -247 -630 -413 -1033 -452 -397 -39 -865 103 -1187
359 -328 262 -537 597 -626 1009 -15 73 -22 148 -26 293 -5 170 -2 211 17 325
93 554 446 1028 940 1264 127 60 279 112 420 143 92 20 133 22 330 22 195 0
239 -3 328 -22 300 -65 531 -175 761 -360 l103 -84 52 52 51 52 -70 64 c-114
106 -301 226 -459 296 -284 125 -584 178 -896 157z"/>
<path d="M2454 3600 c-139 -36 -295 -134 -375 -233 -72 -91 -112 -189 -128
-314 -23 -183 42 -345 197 -499 62 -61 115 -99 358 -257 124 -81 208 -168 217
-225 13 -78 -31 -165 -101 -201 -44 -23 -140 -32 -221 -21 -130 18 -316 124
-453 258 -32 31 -59 54 -61 51 -5 -6 -226 -286 -266 -337 l-34 -44 59 -54
c118 -110 305 -220 462 -274 141 -47 248 -63 422 -64 178 -1 258 13 380 67
208 93 342 302 357 558 10 174 -45 291 -216 459 -79 77 -129 115 -267 199
-320 198 -375 256 -345 368 21 78 108 133 212 133 111 0 317 -82 430 -171 l48
-39 44 63 c164 232 207 300 196 314 -27 32 -140 108 -219 148 -244 123 -504
166 -696 115z"/>
</g>
</svg>
