<?xml version="1.0" standalone="no"?>
<!DOCTYPE svg PUBLIC "-//W3C//DTD SVG 20010904//EN"
 "http://www.w3.org/TR/2001/REC-SVG-20010904/DTD/svg10.dtd">
<svg version="1.0" xmlns="http://www.w3.org/2000/svg"
 width="340.000000pt" height="340.000000pt" viewBox="0 0 340.000000 340.000000"
 preserveAspectRatio="xMidYMid meet">

<g transform="translate(0.000000,340.000000) scale(0.100000,-0.100000)"
fill="#000000" stroke="none">
<path d="M958 2968 l-728 -421 0 -848 0 -847 729 -421 c401 -232 734 -421 740
-421 6 0 339 190 741 422 l730 421 0 848 0 847 -729 421 c-401 232 -736 421
-743 420 -7 0 -340 -190 -740 -421z m1146 -364 c4 -75 4 -139 1 -142 -2 -3
-62 -8 -132 -13 -280 -16 -441 -66 -543 -168 -57 -57 -80 -118 -80 -212 0
-131 54 -157 381 -188 228 -22 309 -40 390 -88 103 -62 175 -152 205 -258 26
-92 15 -289 -24 -412 -110 -348 -404 -535 -878 -560 l-121 -6 -7 138 c-4 75
-4 140 -1 143 3 3 56 9 118 13 429 26 635 195 638 520 1 100 -13 136 -63 167
-52 32 -100 41 -327 62 -198 18 -222 23 -310 56 -151 58 -232 137 -272 268
-32 101 -23 250 21 363 73 191 236 326 478 394 112 32 291 57 413 58 l106 1 7
-136z"/>
</g>
</svg>
